<svg xmlns="http://www.w3.org/2000/svg" version="1.1" xmlns:xlink="http://www.w3.org/1999/xlink" viewBox="0 0 200 200"><rect width="200" height="200" fill="url('#gradient')"></rect><defs><linearGradient id="gradient" gradientTransform="rotate(110 0.5 0.5)"><stop offset="0%" stop-color="#353664"></stop><stop offset="100%" stop-color="#211c36"></stop></linearGradient></defs><g><g fill="#fcfb9b" transform="matrix(2.736342042755344,0,0,2.736342042755344,8.607739348309636,120.25127420402762)" stroke="#a8dc9f" stroke-width="0.2"><path d="M0.51-5.36L0.51-5.36Q0.51-7.87 1.59-9.32Q2.68-10.76 4.62-10.76L4.62-10.76Q6.04-10.76 7.00-9.65L7.00-9.65L7.00-15L10.30-15L10.30 0L7.34 0L7.18-1.13Q6.16 0.20 4.60 0.20L4.60 0.20Q2.71 0.20 1.61-1.25Q0.51-2.70 0.51-5.36ZM3.81-5.76L3.80-5.16Q3.80-2.34 5.44-2.34L5.44-2.34Q6.53-2.34 7.00-3.26L7.00-3.26L7.00-7.29Q6.55-8.22 5.46-8.22L5.46-8.22Q3.94-8.22 3.81-5.76L3.81-5.76ZM11.77-4.82L11.76-5.38Q11.76-6.96 12.37-8.20Q12.99-9.43 14.14-10.10Q15.29-10.76 16.85-10.76L16.85-10.76Q19.22-10.76 20.59-9.29Q21.95-7.82 21.95-5.29L21.95-5.29L21.95-5.18Q21.95-2.71 20.58-1.25Q19.21 0.20 16.87 0.20L16.87 0.20Q14.61 0.20 13.24-1.16Q11.88-2.51 11.77-4.82L11.77-4.82ZM15.06-5.77L15.05-5.18Q15.05-3.71 15.51-3.03Q15.97-2.34 16.87-2.34L16.87-2.34Q18.62-2.34 18.66-5.05L18.66-5.05L18.66-5.38Q18.66-8.22 16.85-8.22L16.85-8.22Q15.20-8.22 15.06-5.77L15.06-5.77ZM33.21 0L28.54 0L28.54-14.22L33.12-14.22Q35-14.22 36.50-13.36Q38.01-12.51 38.85-10.95Q39.70-9.39 39.71-7.46L39.71-7.46L39.71-6.81Q39.71-4.85 38.88-3.31Q38.06-1.76 36.56-0.88Q35.06-0.01 33.21 0L33.21 0ZM33.12-11.57L31.96-11.57L31.96-2.64L33.15-2.64Q34.63-2.64 35.42-3.69Q36.21-4.74 36.21-6.81L36.21-6.81L36.21-7.42Q36.21-9.48 35.42-10.53Q34.63-11.57 33.12-11.57L33.12-11.57ZM46.43 0.20L46.43 0.20Q43.99 0.20 42.49-1.25Q40.99-2.71 40.99-5.03L40.99-5.03L40.99-5.30Q40.99-6.92 41.59-8.16Q42.19-9.40 43.34-10.08Q44.49-10.76 46.07-10.76L46.07-10.76Q48.30-10.76 49.59-9.38Q50.88-8.00 50.88-5.53L50.88-5.53L50.88-4.25L44.34-4.25Q44.51-3.36 45.11-2.85Q45.70-2.34 46.65-2.34L46.65-2.34Q48.21-2.34 49.09-3.44L49.09-3.44L50.60-1.66Q49.98-0.81 48.85-0.31Q47.72 0.20 46.43 0.20ZM46.05-8.22L46.05-8.22Q44.61-8.22 44.34-6.31L44.34-6.31L47.66-6.31L47.66-6.56Q47.68-7.35 47.26-7.79Q46.84-8.22 46.05-8.22ZM61.45 0L58.15 0Q57.98-0.32 57.84-0.95L57.84-0.95Q56.93 0.20 55.30 0.20L55.30 0.20Q53.81 0.20 52.76-0.71Q51.72-1.61 51.72-2.98L51.72-2.98Q51.72-4.70 52.99-5.58Q54.26-6.46 56.68-6.46L56.68-6.46L57.70-6.46L57.70-7.01Q57.70-8.47 56.44-8.47L56.44-8.47Q55.26-8.47 55.26-7.31L55.26-7.31L51.97-7.31Q51.97-8.85 53.28-9.80Q54.58-10.76 56.60-10.76Q58.62-10.76 59.79-9.78Q60.97-8.79 61.00-7.07L61.00-7.07L61.00-2.39Q61.02-0.94 61.45-0.17L61.45-0.17L61.45 0ZM56.09-2.15L56.09-2.15Q56.71-2.15 57.11-2.41Q57.52-2.68 57.70-3.01L57.70-3.01L57.70-4.70L56.74-4.70Q55.02-4.70 55.02-3.15L55.02-3.15Q55.02-2.71 55.32-2.43Q55.63-2.15 56.09-2.15ZM66.29-15L66.29 0L62.99 0L62.99-15L66.29-15Z"></path></g></g></svg>